<svg width="22" height="22" viewBox="0 0 22 22" fill="none" xmlns="http://www.w3.org/2000/svg">
<path fill-rule="evenodd" clip-rule="evenodd" d="M10.8731 0.87085C5.11282 0.87085 0.447266 5.5364 0.447266 11.2967C0.447266 15.9101 3.43165 19.8067 7.57592 21.1882C8.09721 21.2794 8.29269 20.9666 8.29269 20.6929C8.29269 20.4453 8.27966 19.6243 8.27966 18.7511C5.66017 19.2333 4.98249 18.1125 4.77398 17.5261C4.65669 17.2263 4.14843 16.3011 3.70533 16.0534C3.34043 15.858 2.81914 15.3758 3.6923 15.3627C4.51333 15.3497 5.09978 16.1186 5.29527 16.4314C6.23359 18.0083 7.7323 17.5652 8.33179 17.2915C8.42301 16.6138 8.69669 16.1577 8.99643 15.8971C6.67669 15.6364 4.25269 14.7372 4.25269 10.7493C4.25269 9.6155 4.65669 8.67718 5.32133 7.94737C5.21708 7.68673 4.85217 6.61808 5.42559 5.18453C5.42559 5.18453 6.29875 4.91085 8.29269 6.25318C9.12675 6.0186 10.0129 5.90131 10.8991 5.90131C11.7853 5.90131 12.6715 6.0186 13.5056 6.25318C15.4995 4.89782 16.3727 5.18453 16.3727 5.18453C16.9461 6.61808 16.5812 7.68673 16.477 7.94737C17.1416 8.67718 17.5456 9.60247 17.5456 10.7493C17.5456 14.7502 15.1086 15.6364 12.7888 15.8971C13.1668 16.2229 13.4926 16.8484 13.4926 17.8258C13.4926 19.2203 13.4795 20.3411 13.4795 20.6929C13.4795 20.9666 13.675 21.2924 14.1963 21.1882C16.266 20.4894 18.0644 19.1592 19.3385 17.3848C20.6127 15.6104 21.2983 13.4811 21.2989 11.2967C21.2989 5.5364 16.6333 0.87085 10.8731 0.87085Z" fill="black"/>
</svg>
